<svg width="1024" height="1024" viewBox="0 0 1024 1024" fill="none" xmlns="http://www.w3.org/2000/svg">
    <path fill="#08BE26"
          d="M512 0c282.7776 0 512 229.2224 512 512s-229.2224 512-512 512S0 794.7776 0 512 229.2224 0 512 0z m69.12 159.744A359.5776 359.5776 0 0 0 278.016 242.7904c-19.1488 16.8448-36.4544 35.6864-51.6096 56.2176l491.1104 411.3408a283.7504 283.7504 0 0 1-384 19.3024 285.5936 285.5936 0 0 1-66.6624-80.2816l-58.624 48.9472A359.2704 359.2704 0 0 0 515.0208 870.4a359.2704 359.2704 0 0 0 306.7904-172.032L336.5888 291.84a284.16 284.16 0 0 1 425.1648 80.384l58.5728-48.896a359.0144 359.0144 0 0 0-239.2576-163.6352zM194.6112 346.3168c-12.6464 23.9104-22.4768 49.2032-29.3376 75.3664a358.912 358.912 0 0 0 27.2896 253.696l59.9552-49.9712a282.2656 282.2656 0 0 1-20.992-148.2752l283.136 236.5952L596.992 645.12l-59.5968-49.8176-22.784 18.7392L254.2592 396.288z m635.4944 0l-196.6592 161.9968 59.5456 49.2544 99.4816-82.0736a275.968 275.968 0 0 1-21.504 146.5856l59.8528 49.5104a351.8976 351.8976 0 0 0 28.2624-250.7264 346.88 346.88 0 0 0-28.9792-74.5472z"/>
</svg>